<?xml version="1.0" encoding="UTF-8"?>
<!DOCTYPE svg PUBLIC "-//W3C//DTD SVG 1.1//EN" "http://www.w3.org/Graphics/SVG/1.1/DTD/svg11.dtd">
<!-- Creator: CorelDRAW -->
<svg xmlns="http://www.w3.org/2000/svg" xml:space="preserve" width="5.2916mm" height="5.2916mm" version="1.1" style="shape-rendering:geometricPrecision; text-rendering:geometricPrecision; image-rendering:optimizeQuality; fill-rule:evenodd; clip-rule:evenodd"
viewBox="0 0 19.73 19.73"
 xmlns:xlink="http://www.w3.org/1999/xlink"
 xmlns:xodm="http://www.corel.com/coreldraw/odm/2003">
 <defs>
  <style type="text/css">
   <![CDATA[
    .fil0 {fill:#4D4D4D}
   ]]>
  </style>
 </defs>
 <g id="Layer_x0020_1">
  <metadata id="CorelCorpID_0Corel-Layer"/>
  <path class="fil0" d="M8.77 17.54c0,0.58 0.23,1.14 0.64,1.55 0.41,0.41 0.97,0.64 1.55,0.64l6.58 0c0.58,0 1.14,-0.23 1.55,-0.64 0.41,-0.41 0.64,-0.97 0.64,-1.55l0 -4.38c0,-0.58 -0.23,-1.14 -0.64,-1.55 -0.41,-0.41 -0.97,-0.64 -1.55,-0.64l-6.58 0c-0.58,0 -1.14,0.23 -1.55,0.64 -0.41,0.41 -0.64,0.97 -0.64,1.55l0 4.38zm-4.38 -6.58l-2.19 0c-0.58,0 -1.14,0.23 -1.55,0.64 -0.41,0.41 -0.64,0.97 -0.64,1.55l0 4.38c0,0.58 0.23,1.14 0.64,1.55 0.41,0.41 0.97,0.64 1.55,0.64l2.19 0c0.58,0 1.14,-0.23 1.55,-0.64 0.41,-0.41 0.64,-0.97 0.64,-1.55l0 -4.38c0,-0.58 -0.23,-1.14 -0.64,-1.55 -0.41,-0.41 -0.97,-0.64 -1.55,-0.64zm15.34 -8.77c0,-0.58 -0.23,-1.14 -0.64,-1.55 -0.41,-0.41 -0.97,-0.64 -1.55,-0.64l-15.34 0c-0.58,0 -1.14,0.23 -1.55,0.64 -0.41,0.41 -0.64,0.97 -0.64,1.55l0 4.38c0,0.58 0.23,1.14 0.64,1.55 0.41,0.41 0.97,0.64 1.55,0.64l15.34 0c1.21,0 2.19,-0.98 2.19,-2.19l0 -4.38z"/>
 </g>
</svg>
