<?xml version="1.0" encoding="UTF-8"?>
<!DOCTYPE svg PUBLIC "-//W3C//DTD SVG 1.1//EN" "http://www.w3.org/Graphics/SVG/1.1/DTD/svg11.dtd">
<!-- Creator: CorelDRAW -->
<svg xmlns="http://www.w3.org/2000/svg" xml:space="preserve" width="130.739mm" height="60.9558mm" version="1.1" style="shape-rendering:geometricPrecision; text-rendering:geometricPrecision; image-rendering:optimizeQuality; fill-rule:evenodd; clip-rule:evenodd"
viewBox="0 0 14528.64 6773.85"
 xmlns:xlink="http://www.w3.org/1999/xlink"
 xmlns:xodm="http://www.corel.com/coreldraw/odm/2003">
 <defs>
  <style type="text/css">
   <![CDATA[
    .str0 {stroke:#373435;stroke-width:22.23;stroke-miterlimit:22.9256}
    .fil3 {fill:none}
    .fil5 {fill:#FEFEFE}
    .fil6 {fill:#D2D3D5;fill-rule:nonzero}
    .fil4 {fill:url(#id0)}
    .fil2 {fill:url(#id1)}
    .fil0 {fill:url(#id2)}
    .fil1 {fill:url(#id3)}
   ]]>
  </style>
  <linearGradient id="id0" gradientUnits="userSpaceOnUse" x1="1667.1" y1="2724.85" x2="8262.24" y2="2724.85">
   <stop offset="0" style="stop-opacity:1; stop-color:#64FFDA"/>
   <stop offset="0.709804" style="stop-opacity:1; stop-color:#02C295"/>
   <stop offset="1" style="stop-opacity:1; stop-color:#03EBB5"/>
  </linearGradient>
  <linearGradient id="id1" gradientUnits="userSpaceOnUse" xlink:href="#id0" x1="10354.5" y1="3513.55" x2="10713.05" y2="3513.55">
  </linearGradient>
  <linearGradient id="id2" gradientUnits="userSpaceOnUse" xlink:href="#id0" x1="586.86" y1="2707.57" x2="13941.8" y2="2707.57">
  </linearGradient>
  <linearGradient id="id3" gradientUnits="userSpaceOnUse" xlink:href="#id0" x1="10274.73" y1="3995.21" x2="11545.87" y2="3995.21">
  </linearGradient>
 </defs>
 <g id="Layer_x0020_1">
  <metadata id="CorelCorpID_0Corel-Layer"/>
  <g id="_1551783950832">
   <g>
    <g>
     <path class="fil0" d="M9635.17 615.96c-86.68,-27.22 -192.12,-267.13 -274.74,-275.6 3.11,251.01 105.03,662.04 228.77,861.47 49.73,80.17 123.38,114.61 177.81,183.68 -67.92,79.48 -225.3,34.85 -299.78,-4.22 -77.68,-40.76 -184.89,-153.59 -227.19,-160.49 -69.91,53.16 -100.35,205.29 -127.57,317.35 -44.62,183.6 -18.99,215.63 68.87,335.92 249.3,341.28 558.75,449.54 763.31,1030.53 66.91,190.04 131.04,591.34 48.54,787.62 -62.81,149.45 -300.62,421.93 -389.55,503.39 -152.19,139.44 -317.48,256.29 -540.77,360.31 -397.58,185.19 -1603.49,263.05 -2104.39,309.67 -603.41,56.14 -1081.25,15.04 -1650.92,-90.96 -1065.15,-198.18 -1991.95,-364.11 -3073.18,-514.86 -233.38,-32.54 -1495.41,-180.56 -1647.53,-95.62 46.4,23.09 292.1,57.9 365.14,71.1 719.45,130.2 1833.53,421.51 2520.4,605.53 454.64,121.81 959.29,260.44 1412.09,372.98 981.23,243.88 2816.33,308.47 3773.27,-46.35 508.45,-188.53 773.62,-384.44 1057.06,-728.03 129.27,-156.7 247.01,-328.94 325.09,-568.12 211.83,-648.89 260,-1213.96 -92.64,-1804.42 -52.26,-87.51 -177.24,-228.6 -187.89,-259.78 8.73,-15.57 9.5,-15.05 20.9,-30.19 84.18,-111.82 104.1,-233.26 137.51,-269.85 39.21,12.77 160.93,102.28 208.44,132.6 132.65,84.7 420.16,252.55 570.94,296.5 33.92,9.89 102.24,26.35 126.63,44.52 -11.2,84.2 -60.39,232.73 -83.79,326.54 -96.15,385.29 15.85,627.69 264.33,901.17l215.3 197.98c430.8,360.02 1362.62,769.49 1862.78,1029.88 183.66,95.61 373.4,174.97 568.76,257.35 155.52,65.58 171.82,37.89 221.18,-113.68 31.9,-98.01 75.01,-239.53 68.82,-350.1 -113.88,-57.21 -227.99,-123.87 -343.18,-184.63 -118.63,-62.56 -223.13,-126.34 -333.58,-195.41 -350.37,-219.08 -632.79,-358.33 -981.89,-605.54 -108.19,-76.6 -205.46,-157.11 -297.15,-231.68l-269.59 -259.38c-41.62,-48.83 -191.04,-258.33 -193.03,-342.71 89.31,-96.48 317.39,-161.25 494.78,-156.49 295.72,7.92 485.53,141.52 680.12,294.29 164.77,129.37 297.41,238.03 439.74,386.81 28.67,29.96 42.64,66.51 94.84,70.6 89.56,-44.97 120.18,-311.53 125.44,-438.39 2.72,-65.69 -3.97,-66.43 -36.99,-104.57 -149.39,-172.4 -340.05,-318.87 -522.61,-461.19 -97.6,-76.08 -221.04,-152.82 -362.43,-199.3 -328.79,-108.07 -691.78,-17.41 -862.5,172.49 -173.24,192.71 -266.31,598.76 -246.15,876.02 -43.44,-13.85 -68.68,-48.88 -96.56,-74.99 -143.19,-134.01 -278.28,-304.82 -325.85,-500.65 -28.77,-118.46 -41.13,-174.24 4.86,-277.61 191.83,-13.75 336,35.49 520.59,-165.99 92.28,-100.71 177.23,-304.28 221.97,-463.1 24.44,-86.76 49.58,-186.75 60.3,-279.36 15.99,-138.28 -42.18,-157 -112.59,-219.84 -119.14,-106.33 -240.91,-198.47 -388.7,-305.5 -136.38,-98.74 -268.99,-191.23 -398.95,-287.05 -109.84,-80.98 -285.27,-212.68 -435.37,-259.24 -277.22,-86.01 -520.12,165.51 -634.48,357.62 -52.03,87.38 -65.59,147.08 -107.03,240.97zm115.24 111.44c33.26,18.97 52.47,41.79 84.45,71.42 24.06,22.3 61.6,54.96 88.99,76.51 242.64,190.77 266.19,225.55 575.67,391.47 74.61,39.99 129.34,74.41 209.27,113.18 69.68,33.79 154.5,61.86 238.11,84.12 231.38,61.59 338.93,50.37 526.33,-51.41 -13.2,-37.74 -59.82,-65.75 -87.71,-89.86 -36.14,-31.23 -62.78,-53.2 -98.63,-83.15 -188.72,-157.66 -868.26,-658.93 -1056.8,-720.45 -111.87,-36.52 -200.76,-20.95 -291.96,26.71 -62.85,32.83 -174.15,117.37 -187.73,181.44z"/>
     <path class="fil1" d="M11076.53 3760.82c-71.87,-14.14 -81.08,-73.17 -123.47,-82.72 -32.16,110.73 39.96,173.31 56.83,264.35 -53.11,39.39 -47.4,50.05 -159.72,128.02 -127.24,88.33 -229.54,146.79 -369.81,216.63 -66.94,33.34 -138.11,54.26 -205.63,90.49l48.75 15.36c51.66,3.76 148.8,-14.41 195.57,-26.28 117.61,-29.85 322.25,-108.08 412.04,-182.53 80.77,-66.98 99.06,-130.11 135.6,-162.52 43,22.35 61.55,60.44 128.69,86.29 93.18,35.89 265.05,30.19 307.72,-87.27 83.69,-230.4 57.32,-222.69 -194.11,-380.89 -123.3,-77.57 -182.18,-56.67 -232.46,121.07zm53.57 139.42c1.08,4.42 2.11,8.93 3.04,13.58 27.13,15.34 46.35,32.67 70.44,53.02 12.22,10.33 22.15,17.26 37.22,23.06 29.6,11.4 72.02,13.79 103.29,7.72 10.16,-1.96 35.79,-8.26 40.13,-20.17 7.3,-20.09 31.97,-85.97 34.92,-113.93 -28.78,-28.48 -150.11,-99.51 -177.5,-116.74 -5.08,-3.19 -13.67,-8.5 -22.49,-13.3 -9.01,21.16 -17.37,49.16 -20.94,61.76l-31.73 112.15 -36.38 -7.16z"/>
     <path class="fil2" d="M10521.18 3865.2c-61.28,-34.19 15.87,-261.26 -140.51,-229.74 -19.64,23.19 -25.55,44.22 -26.17,80.9 80.13,52.46 79.09,-21.59 111,214.42 1.93,14.3 3.69,31.19 5.97,42.46 7.18,35.46 9.59,32.45 18.9,43.28 154.46,-280.8 59.2,-329.09 -6.67,-618.09 -80.33,-352.48 179.14,-337.57 192.01,-185.4 6.57,77.58 -41.33,90.29 -58.39,150.12 24.78,-10.57 32.03,-15.1 53.76,-50.61 13.69,-22.38 24.71,-48.91 31.63,-75.56 58.14,-223.95 -143.83,-336.25 -241.55,-76.84 -112.83,299.5 121.43,593.71 60.01,705.06z"/>
    </g>
    <g>
     <g>
      <path class="fil3 str0" d="M6277.66 2201.01l0 -588.83 1012.36 0c142.42,0 298.11,12.02 431.93,63.8 141.54,54.77 254.64,152.73 333.64,282.16 74.96,122.78 112.15,260.05 112.15,403.88 0,190.13 -65.42,364.22 -196.01,502.77 -2.07,2.18 -4.13,4.36 -6.22,6.5 3,4.61 5.96,9.22 8.89,13.86l588.45 926.59 -1037.06 0 -300.78 -473.44c-26.3,-41.41 -53.65,-83.81 -82.42,-124.66l0 598.1 -1159.68 0 -178 -466.37 -187.77 0 -166.91 466.37 -2404.88 0 0 -159.79c-22.84,17.64 -46.74,34.24 -71.62,49.78 -160.39,100.19 -347.02,135.79 -533.95,135.79 -176.25,0 -354.42,-29.64 -510.71,-114.67 -156.94,-85.39 -274.82,-214.22 -343.25,-379.37 -65.9,-159.01 -83.91,-341.47 -83.91,-512.25l0 -1219.05 864.94 0 0 1218.7c0,37.42 0.77,113.58 10.37,159.07 14.85,3.34 34.79,4.12 45.03,4.12 15.82,0 46.95,-0.89 71.1,-4.89 10.36,-48.18 12.2,-124.43 12.2,-158.3l0 -1218.7 1413.34 0 204.76 612.88 212.09 -612.88 838.28 0 0 497.23 190.74 -497.23 673.21 0 239.72 588.83z"/>
      <path class="fil4" d="M6442.85 3044.87l0 -1267.51 847.17 0c120.3,0 259.22,8.91 372.31,52.69 107.67,41.65 192.19,115.75 252.26,214.15 59.13,96.86 87.96,204.35 87.96,317.81 0,147.97 -49.34,281.59 -151.03,389.46 -33.62,35.67 -71.39,65.42 -112.05,90.17 34.67,41.91 66.42,86.29 95.48,132.05l427.3 672.85 -645.67 0 -252.13 -396.82c-42.71,-67.23 -87.86,-136.32 -137.04,-199.03 -15.14,-19.3 -42.18,-52.46 -63.06,-65.93 -12.27,-7.91 -25.59,-14.44 -39.66,-18.44 -22.16,-3.71 -55.44,-3.2 -76.78,-3.2l-70.5 0 0 683.42 -880.72 0 -178.01 -466.38 -417.87 0 -166.91 466.38 -851.07 0 0 -477.66 -166.66 477.66 -419.14 0 -160.52 -473.79 0 473.79 -525.96 0 0 -1869.18 589.35 0 321.01 960.77 332.47 -960.77 555.42 0 0 1223.89 469.49 -1223.89 448.56 0 516.01 1267.51zm-3772.13 -1267.51l534.59 0 0 1053.86c0,140.53 -12.51,295.73 -63.33,427.9 -49.55,128.84 -139.04,229.58 -255.77,302.51 -133.32,83.28 -291.34,110.69 -446.44,110.69 -147.82,0 -300.49,-23.17 -431.76,-94.59 -123.73,-67.31 -215.61,-167.27 -269.58,-297.5 -57.05,-137.66 -71.32,-301.29 -71.32,-449.01l0 -1053.86 534.54 0 0 1053.51c0,64 2.36,175.06 25.94,235.38 11.18,28.65 28.33,47.74 55.07,62.89 41.38,23.45 92.74,30.12 139.58,30.12 53.61,0 157.86,-6.22 198.06,-49.27 44.35,-47.48 50.43,-219.19 50.43,-279.11l0 -1053.51zm3011.6 906.94l47.71 0 -23.94 -63.62 -23.77 63.62zm1295.08 -227.81l271.81 0c47.47,0 115.82,-2.4 160.95,-18.94 14.77,-5.41 27.83,-12.58 36.43,-26.06 9.93,-15.59 14.97,-30.6 14.97,-49.13 0,-24.19 -5.41,-40.35 -23.53,-56.5 -27.45,-24.45 -105.56,-28.34 -139.39,-28.34l-321.24 0 0 178.96z"/>
     </g>
     <path class="fil5" d="M2835.92 1942.56l204.19 0 0 888.67c0,154.73 -17.57,277.6 -52.32,368.59 -35.11,90.62 -98.13,164.77 -189.11,221.7 -91.35,56.96 -210.63,85.62 -358.92,85.62 -143.62,0 -261.47,-24.73 -352.81,-74.5 -91.7,-49.81 -156.89,-121.44 -195.93,-215.63 -39.04,-94.2 -58.74,-222.79 -58.74,-385.78l0 -888.67 204.16 0 0 888.32c0,133.62 12.54,232.46 37.26,295.51 24.69,63.41 66.97,112.48 127.5,146.49 60.19,34.39 133.97,51.59 221.02,51.59 149,0 255.38,-34.02 318.79,-101.71 63.38,-68.05 94.9,-198.45 94.9,-391.87l0 -888.32zm539.8 1538.79l0 -1538.79 305.19 0 363.92 1089.26c33.66,101.38 58.03,177.33 73.41,227.81 17.57,-55.86 45.13,-138.26 82.4,-246.78l370.36 -1070.29 272.59 0 0 1538.79 -195.58 0 0 -1287.34 -449.19 1287.34 -183.36 0 -444.16 -1310.98 0 1310.98 -195.58 0zm1625.84 0l590.3 -1538.79 223.88 0 626.47 1538.79 -231.76 0 -178.01 -466.37 -647.96 0 -166.92 466.37 -215.99 0zm442.72 -631.84l524.39 0 -160.47 -426.6c-48.36,-129.69 -84.89,-236.78 -110.32,-321.3 -21.13,100.28 -49.43,198.77 -84.89,296.22l-168.71 451.68zm1163.77 631.84l0 -1538.79 681.98 0c137.2,0 241.42,13.99 312.7,41.55 71.3,27.59 128.24,76.3 170.86,146.15 42.64,69.83 63.76,147.2 63.76,231.76 0,109.25 -35.46,201.3 -106.03,276.15 -70.57,74.88 -179.44,122.14 -327.01,142.58 54.09,25.78 94.9,51.57 122.85,76.63 59.45,54.44 115.69,122.85 168.35,204.9l266.14 419.07 -254.31 0 -203.44 -320.21c-59.12,-92.77 -108.19,-163.33 -146.52,-212.41 -38.68,-49.08 -73.06,-83.1 -103.51,-102.79 -30.07,-19.35 -61.24,-32.95 -92.77,-40.85 -22.93,-4.65 -60.52,-7.16 -113.18,-7.16l-235.69 0 0 683.42 -204.16 0zm204.16 -859.66l437 0c93.14,0 165.48,-9.67 217.76,-29.02 52.32,-18.98 92.07,-49.77 118.93,-92.39 27.24,-42.3 40.84,-88.13 40.84,-137.91 0,-72.72 -26.15,-132.91 -78.81,-179.81 -52.65,-46.94 -135.75,-70.21 -249.29,-70.21l-486.43 0 0 509.34z"/>
    </g>
   </g>
   <path class="fil6" d="M56.39 6753.4l0 -102.91c106.38,18.52 196.1,27.79 268.41,27.79 42.01,0 75.33,-3.5 99.95,-10.51 24.2,-6.89 36.35,-16.15 36.35,-27.56 0,-8.81 -9.87,-17.17 -29.16,-24.86 -19.7,-7.68 -53.4,-17.06 -101.47,-28.13 -116.23,-26.44 -200.23,-51.17 -252.48,-73.99 -52.24,-22.83 -77.98,-48.24 -77.98,-76.26 0,-38.18 40.11,-69.25 120.76,-93.31 80.62,-24.06 184.7,-36.15 312.66,-36.15 94.66,0 188.54,6.1 281.66,18.3l0 98.96c-99.57,-16.38 -180.56,-24.51 -242.68,-24.51 -41.63,0 -74.18,3.06 -98.41,9.03 -23.84,6.1 -35.94,14.46 -35.94,25.08 0,18.52 56.01,39.32 167.31,62.48 66.62,13.67 134.39,32.98 202.53,57.72 68.52,24.86 102.56,53.66 102.56,86.31 0,38.18 -44.65,69.7 -133.99,94.78 -89.7,25.08 -202.91,37.62 -340.68,37.62 -93.88,0 -187.02,-6.67 -279.4,-19.88zm2116.29 19.2c-178.66,0 -315.32,-20.56 -409.2,-61.45 -93.88,-40.89 -140.8,-99.98 -140.8,-177.25 0,-71.29 47.3,-126.75 141.58,-166.62 94.26,-39.77 225.59,-59.76 394.06,-59.76 179.81,0 317.22,19.99 412.26,59.99 94.99,39.87 142.32,96.93 142.32,171.04 0,74.22 -46.55,131.72 -140.05,172.61 -93.91,40.89 -227.14,61.45 -400.16,61.45zm-12.1 -364.77c-121.13,0 -181.68,42.47 -181.68,127.43 0,54.67 15.12,91.28 45.81,109.58 30.64,18.3 75.33,27.45 133.61,27.45 62.85,0 111.3,-9.15 145,-27.45 33.29,-18.3 50.35,-54.23 50.35,-107.55 0,-86.31 -64.39,-129.46 -193.08,-129.46zm1441 -88l336.18 0 0 339.58 266.09 0 0 102.24 -602.28 0 0 -441.82zm1439.87 0l344.86 0 0 311.11c0,14.58 12.85,26.1 38.57,34.57 26.14,8.47 60.59,12.77 104.49,12.77 45.05,0 80.62,-4.52 106.76,-13.56 26.47,-9.16 39.36,-21.58 39.36,-37.51l0 -307.39 342.96 0 0 289.88c0,39.54 -17.39,71.18 -52.25,95.01 -34.82,23.83 -85.9,41.34 -153.68,52.41 -67.77,11.19 -162.02,16.72 -283.15,16.72 -179.04,0 -305.09,-13.67 -378.15,-41.01 -73.43,-27.34 -109.77,-73.54 -109.77,-138.62l0 -274.4zm1808.94 0l801.76 0 0 100.88 -231.69 0 0 340.94 -340.69 0 0 -340.94 -229.38 0 0 -100.88zm1661.7 0l336.15 0 0 441.82 -336.15 0 0 -441.82zm1785.81 452.78c-178.67,0 -315.32,-20.56 -409.2,-61.45 -93.88,-40.89 -140.8,-99.98 -140.8,-177.25 0,-71.29 47.3,-126.75 141.58,-166.62 94.25,-39.77 225.59,-59.76 394.06,-59.76 179.81,0 317.22,19.99 412.26,59.99 94.99,39.87 142.32,96.93 142.32,171.04 0,74.22 -46.55,131.72 -140.05,172.61 -93.91,40.89 -227.14,61.45 -400.16,61.45zm-12.1 -364.77c-121.13,0 -181.68,42.47 -181.68,127.43 0,54.67 15.11,91.28 45.81,109.58 30.64,18.3 75.33,27.45 133.61,27.45 62.85,0 111.3,-9.15 145,-27.45 33.29,-18.3 50.35,-54.23 50.35,-107.55 0,-86.31 -64.39,-129.46 -193.08,-129.46zm1441 -88l339.19 0 427.01 254.86 -12.14 -47.67 0 -207.19 336.18 0 0 441.82 -344.86 0 -418.29 -250.9 9.09 55.02 0 195.88 -336.18 0 0 -441.82zm2047.77 433.57l0 -102.91c106.39,18.52 196.1,27.79 268.42,27.79 42.01,0 75.33,-3.5 99.95,-10.51 24.2,-6.89 36.34,-16.15 36.34,-27.56 0,-8.81 -9.87,-17.17 -29.16,-24.86 -19.69,-7.68 -53.4,-17.06 -101.47,-28.13 -116.22,-26.44 -200.23,-51.17 -252.47,-73.99 -52.24,-22.83 -77.98,-48.24 -77.98,-76.26 0,-38.18 40.11,-69.25 120.76,-93.31 80.62,-24.06 184.7,-36.15 312.66,-36.15 94.66,0 188.53,6.1 281.66,18.3l0 98.96c-99.57,-16.38 -180.57,-24.51 -242.68,-24.51 -41.63,0 -74.18,3.06 -98.43,9.03 -23.83,6.1 -35.93,14.46 -35.93,25.08 0,18.52 56.01,39.32 167.31,62.48 66.61,13.67 134.39,32.98 202.53,57.72 68.52,24.86 102.56,53.66 102.56,86.31 0,38.18 -44.65,69.7 -133.99,94.78 -89.7,25.08 -202.91,37.62 -340.69,37.62 -93.87,0 -187,-6.67 -279.4,-19.88z"/>
  </g>
 </g>
</svg>
